<mxfile host="app.diagrams.net" modified="2023-04-21T15:01:16.145Z" agent="Mozilla/5.0 (Macintosh; Intel Mac OS X 10_15_7) AppleWebKit/537.36 (KHTML, like Gecko) Chrome/112.0.0.0 Safari/537.36" etag="cJRCLQBzkfnBmJL2UMTn" version="21.2.1" type="device">
  <diagram name="Page-1" id="Ngn3FmLotzv5n-5xn6AV">
    <mxGraphModel dx="1840" dy="658" grid="1" gridSize="10" guides="1" tooltips="1" connect="1" arrows="1" fold="1" page="1" pageScale="1" pageWidth="850" pageHeight="1100" math="0" shadow="0">
      <root>
        <mxCell id="0" />
        <mxCell id="1" parent="0" />
        <mxCell id="hpTO8w79oZe0RCC16EcX-18" value="&lt;b style=&quot;border-color: var(--border-color);&quot;&gt;With&amp;nbsp; a&amp;nbsp; LC&lt;/b&gt;" style="text;whiteSpace=wrap;html=1;fontSize=20;fontFamily=Times New Roman;rotation=-90;fillColor=#f5f5f5;fontColor=#333333;strokeColor=none;align=center;" parent="1" vertex="1">
          <mxGeometry x="-106" y="477.09" width="173.12" height="40" as="geometry" />
        </mxCell>
        <mxCell id="hpTO8w79oZe0RCC16EcX-17" value="&lt;div style=&quot;&quot;&gt;&lt;span style=&quot;background-color: initial;&quot;&gt;&lt;b&gt;Without&amp;nbsp; a&amp;nbsp; LC&lt;/b&gt;&lt;/span&gt;&lt;/div&gt;" style="text;whiteSpace=wrap;html=1;fontSize=20;fontFamily=Times New Roman;flipH=1;flipV=1;direction=west;rotation=-90;fillColor=#f5f5f5;fontColor=#333333;strokeColor=none;align=center;" parent="1" vertex="1">
          <mxGeometry x="-102.62" y="304.38" width="167.12" height="40" as="geometry" />
        </mxCell>
        <mxCell id="hpTO8w79oZe0RCC16EcX-2" value="" style="endArrow=none;html=1;rounded=0;strokeColor=#666666;" parent="1" edge="1">
          <mxGeometry width="50" height="50" relative="1" as="geometry">
            <mxPoint x="200" y="583" as="sourcePoint" />
            <mxPoint x="200" y="202" as="targetPoint" />
          </mxGeometry>
        </mxCell>
        <mxCell id="hpTO8w79oZe0RCC16EcX-3" value="" style="endArrow=none;html=1;rounded=0;strokeColor=#666666;" parent="1" edge="1">
          <mxGeometry width="50" height="50" relative="1" as="geometry">
            <mxPoint x="-40" y="240" as="sourcePoint" />
            <mxPoint x="800" y="240" as="targetPoint" />
          </mxGeometry>
        </mxCell>
        <mxCell id="hpTO8w79oZe0RCC16EcX-5" value="" style="endArrow=none;html=1;rounded=0;exitX=0;exitY=1;exitDx=0;exitDy=0;strokeColor=#666666;" parent="1" source="hpTO8w79oZe0RCC16EcX-18" edge="1">
          <mxGeometry width="50" height="50" relative="1" as="geometry">
            <mxPoint y="640" as="sourcePoint" />
            <mxPoint y="240" as="targetPoint" />
          </mxGeometry>
        </mxCell>
        <mxCell id="hpTO8w79oZe0RCC16EcX-6" value="" style="endArrow=none;html=1;rounded=0;fillColor=#f5f5f5;strokeColor=#666666;dashed=1;" parent="1" edge="1">
          <mxGeometry width="50" height="50" relative="1" as="geometry">
            <mxPoint x="400" y="580" as="sourcePoint" />
            <mxPoint x="400" y="200" as="targetPoint" />
          </mxGeometry>
        </mxCell>
        <mxCell id="hpTO8w79oZe0RCC16EcX-7" value="" style="endArrow=none;html=1;rounded=0;fillColor=#f5f5f5;strokeColor=#666666;dashed=1;" parent="1" edge="1">
          <mxGeometry width="50" height="50" relative="1" as="geometry">
            <mxPoint x="600" y="580" as="sourcePoint" />
            <mxPoint x="600" y="200" as="targetPoint" />
          </mxGeometry>
        </mxCell>
        <mxCell id="hpTO8w79oZe0RCC16EcX-8" value="" style="endArrow=none;html=1;rounded=0;strokeColor=#666666;" parent="1" edge="1">
          <mxGeometry width="50" height="50" relative="1" as="geometry">
            <mxPoint x="800" y="582" as="sourcePoint" />
            <mxPoint x="800" y="201" as="targetPoint" />
          </mxGeometry>
        </mxCell>
        <mxCell id="hpTO8w79oZe0RCC16EcX-11" value="" style="endArrow=none;html=1;rounded=0;startSize=6;strokeColor=#666666;" parent="1" edge="1">
          <mxGeometry width="50" height="50" relative="1" as="geometry">
            <mxPoint x="-40" y="583" as="sourcePoint" />
            <mxPoint x="-40" y="240" as="targetPoint" />
          </mxGeometry>
        </mxCell>
        <mxCell id="hpTO8w79oZe0RCC16EcX-13" value="&lt;span style=&quot;background-color: rgb(245, 245, 245);&quot;&gt;&lt;b&gt;CCD PAG&lt;/b&gt;&lt;/span&gt;" style="text;whiteSpace=wrap;html=1;fontSize=20;fontFamily=Times New Roman;align=center;fillColor=#f5f5f5;fontColor=#333333;strokeColor=#666666;" parent="1" vertex="1">
          <mxGeometry x="200.12" y="200" width="200" height="40" as="geometry" />
        </mxCell>
        <mxCell id="hpTO8w79oZe0RCC16EcX-14" value="&lt;span style=&quot;background-color: rgb(245, 245, 245);&quot;&gt;&lt;b&gt;FCI PAG&lt;/b&gt;&lt;/span&gt;" style="text;whiteSpace=wrap;html=1;fontSize=20;fontFamily=Times New Roman;align=center;fillColor=#f5f5f5;fontColor=#333333;strokeColor=#666666;" parent="1" vertex="1">
          <mxGeometry x="400.12" y="200" width="200" height="40" as="geometry" />
        </mxCell>
        <mxCell id="hpTO8w79oZe0RCC16EcX-15" value="&lt;span style=&quot;background-color: rgb(245, 245, 245);&quot;&gt;&lt;b&gt;CCI PAG&lt;/b&gt;&lt;/span&gt;" style="text;whiteSpace=wrap;html=1;fontSize=20;fontFamily=Times New Roman;align=center;fillColor=#f5f5f5;fontColor=#333333;strokeColor=#666666;" parent="1" vertex="1">
          <mxGeometry x="600.12" y="200" width="200" height="40" as="geometry" />
        </mxCell>
        <mxCell id="hpTO8w79oZe0RCC16EcX-16" value="&lt;span style=&quot;background-color: rgb(245, 245, 245);&quot;&gt;&lt;b&gt;True DCG&lt;/b&gt;&lt;/span&gt;" style="text;whiteSpace=wrap;html=1;fontSize=20;fontFamily=Times New Roman;fillColor=#f5f5f5;fontColor=#333333;strokeColor=#666666;align=center;" parent="1" vertex="1">
          <mxGeometry x="0.11999999999999922" y="200" width="200" height="40" as="geometry" />
        </mxCell>
        <mxCell id="hpTO8w79oZe0RCC16EcX-19" value="" style="group" parent="1" vertex="1" connectable="0">
          <mxGeometry x="36" y="259" width="130" height="140" as="geometry" />
        </mxCell>
        <mxCell id="hpTO8w79oZe0RCC16EcX-20" value="&lt;font face=&quot;Times New Roman&quot; style=&quot;font-size: 16px;&quot;&gt;&lt;b&gt;X&lt;sub&gt;1&lt;/sub&gt;&lt;/b&gt;&lt;/font&gt;" style="ellipse;whiteSpace=wrap;html=1;aspect=fixed;" parent="hpTO8w79oZe0RCC16EcX-19" vertex="1">
          <mxGeometry width="37.14285714285714" height="37.14285714285714" as="geometry" />
        </mxCell>
        <mxCell id="hpTO8w79oZe0RCC16EcX-21" value="&lt;font face=&quot;Times New Roman&quot; style=&quot;font-size: 16px;&quot;&gt;&lt;b&gt;X&lt;sub&gt;2&lt;/sub&gt;&lt;/b&gt;&lt;/font&gt;" style="ellipse;whiteSpace=wrap;html=1;aspect=fixed;" parent="hpTO8w79oZe0RCC16EcX-19" vertex="1">
          <mxGeometry y="92.7439869443503" width="37.14285714285714" height="37.14285714285714" as="geometry" />
        </mxCell>
        <mxCell id="hpTO8w79oZe0RCC16EcX-22" value="" style="endArrow=classic;html=1;rounded=0;entryX=0.5;entryY=0;entryDx=0;entryDy=0;exitX=0.5;exitY=1;exitDx=0;exitDy=0;" parent="hpTO8w79oZe0RCC16EcX-19" source="hpTO8w79oZe0RCC16EcX-20" target="hpTO8w79oZe0RCC16EcX-21" edge="1">
          <mxGeometry width="50" height="50" relative="1" as="geometry">
            <mxPoint x="74.28571428571428" y="41.219549753044575" as="sourcePoint" />
            <mxPoint x="120.7142857142857" y="-10.304887438261144" as="targetPoint" />
          </mxGeometry>
        </mxCell>
        <mxCell id="hpTO8w79oZe0RCC16EcX-23" value="&lt;font face=&quot;Times New Roman&quot; style=&quot;font-size: 16px;&quot;&gt;&lt;b&gt;X&lt;sub&gt;4&lt;/sub&gt;&lt;/b&gt;&lt;/font&gt;" style="ellipse;whiteSpace=wrap;html=1;aspect=fixed;" parent="hpTO8w79oZe0RCC16EcX-19" vertex="1">
          <mxGeometry x="92.85714285714285" width="37.14285714285714" height="37.14285714285714" as="geometry" />
        </mxCell>
        <mxCell id="hpTO8w79oZe0RCC16EcX-24" value="&lt;font face=&quot;Times New Roman&quot; style=&quot;font-size: 16px;&quot;&gt;&lt;b&gt;X&lt;sub&gt;3&lt;/sub&gt;&lt;/b&gt;&lt;/font&gt;" style="ellipse;whiteSpace=wrap;html=1;aspect=fixed;" parent="hpTO8w79oZe0RCC16EcX-19" vertex="1">
          <mxGeometry x="92.85714285714285" y="92.7439869443503" width="37.14285714285714" height="37.14285714285714" as="geometry" />
        </mxCell>
        <mxCell id="hpTO8w79oZe0RCC16EcX-25" value="" style="endArrow=classic;html=1;rounded=0;entryX=0.5;entryY=0;entryDx=0;entryDy=0;exitX=0.5;exitY=1;exitDx=0;exitDy=0;" parent="hpTO8w79oZe0RCC16EcX-19" source="hpTO8w79oZe0RCC16EcX-23" target="hpTO8w79oZe0RCC16EcX-24" edge="1">
          <mxGeometry width="50" height="50" relative="1" as="geometry">
            <mxPoint x="167.14285714285714" y="41.219549753044575" as="sourcePoint" />
            <mxPoint x="213.57142857142856" y="-10.304887438261144" as="targetPoint" />
          </mxGeometry>
        </mxCell>
        <mxCell id="hpTO8w79oZe0RCC16EcX-26" value="" style="endArrow=classic;html=1;exitX=1;exitY=0;exitDx=0;exitDy=0;entryX=0;entryY=0;entryDx=0;entryDy=0;curved=1;" parent="hpTO8w79oZe0RCC16EcX-19" source="hpTO8w79oZe0RCC16EcX-21" target="hpTO8w79oZe0RCC16EcX-24" edge="1">
          <mxGeometry width="50" height="50" relative="1" as="geometry">
            <mxPoint x="120.7142857142857" y="164.8781990121783" as="sourcePoint" />
            <mxPoint x="167.14285714285714" y="113.35376182087259" as="targetPoint" />
            <Array as="points">
              <mxPoint x="65" y="82.43909950608915" />
            </Array>
          </mxGeometry>
        </mxCell>
        <mxCell id="hpTO8w79oZe0RCC16EcX-27" value="" style="endArrow=classic;html=1;exitX=0;exitY=1;exitDx=0;exitDy=0;curved=1;entryX=1;entryY=1;entryDx=0;entryDy=0;" parent="hpTO8w79oZe0RCC16EcX-19" source="hpTO8w79oZe0RCC16EcX-24" target="hpTO8w79oZe0RCC16EcX-21" edge="1">
          <mxGeometry width="50" height="50" relative="1" as="geometry">
            <mxPoint x="103.73801692082117" y="123.65864925913372" as="sourcePoint" />
            <mxPoint x="37.14285714285714" y="123.65864925913372" as="targetPoint" />
            <Array as="points">
              <mxPoint x="70.44142857142857" y="140" />
            </Array>
          </mxGeometry>
        </mxCell>
        <mxCell id="hpTO8w79oZe0RCC16EcX-49" value="" style="group" parent="1" vertex="1" connectable="0">
          <mxGeometry x="10" y="430" width="180" height="140" as="geometry" />
        </mxCell>
        <mxCell id="hpTO8w79oZe0RCC16EcX-37" value="" style="group" parent="hpTO8w79oZe0RCC16EcX-49" vertex="1" connectable="0">
          <mxGeometry x="50" y="-2" width="130" height="140" as="geometry" />
        </mxCell>
        <mxCell id="hpTO8w79oZe0RCC16EcX-38" value="&lt;font face=&quot;Times New Roman&quot; style=&quot;font-size: 16px;&quot;&gt;&lt;b&gt;X&lt;sub&gt;1&lt;/sub&gt;&lt;/b&gt;&lt;/font&gt;" style="ellipse;whiteSpace=wrap;html=1;aspect=fixed;" parent="hpTO8w79oZe0RCC16EcX-37" vertex="1">
          <mxGeometry width="37.14285714285714" height="37.14285714285714" as="geometry" />
        </mxCell>
        <mxCell id="hpTO8w79oZe0RCC16EcX-39" value="&lt;font face=&quot;Times New Roman&quot; style=&quot;font-size: 16px;&quot;&gt;&lt;b&gt;X&lt;sub&gt;2&lt;/sub&gt;&lt;/b&gt;&lt;/font&gt;" style="ellipse;whiteSpace=wrap;html=1;aspect=fixed;" parent="hpTO8w79oZe0RCC16EcX-37" vertex="1">
          <mxGeometry y="92.7439869443503" width="37.14285714285714" height="37.14285714285714" as="geometry" />
        </mxCell>
        <mxCell id="hpTO8w79oZe0RCC16EcX-41" value="&lt;font face=&quot;Times New Roman&quot; style=&quot;font-size: 16px;&quot;&gt;&lt;b&gt;X&lt;sub&gt;4&lt;/sub&gt;&lt;/b&gt;&lt;/font&gt;" style="ellipse;whiteSpace=wrap;html=1;aspect=fixed;" parent="hpTO8w79oZe0RCC16EcX-37" vertex="1">
          <mxGeometry x="92.85714285714285" width="37.14285714285714" height="37.14285714285714" as="geometry" />
        </mxCell>
        <mxCell id="hpTO8w79oZe0RCC16EcX-42" value="&lt;font face=&quot;Times New Roman&quot; style=&quot;font-size: 16px;&quot;&gt;&lt;b&gt;X&lt;sub&gt;3&lt;/sub&gt;&lt;/b&gt;&lt;/font&gt;" style="ellipse;whiteSpace=wrap;html=1;aspect=fixed;" parent="hpTO8w79oZe0RCC16EcX-37" vertex="1">
          <mxGeometry x="92.85714285714285" y="92.7439869443503" width="37.14285714285714" height="37.14285714285714" as="geometry" />
        </mxCell>
        <mxCell id="hpTO8w79oZe0RCC16EcX-43" value="" style="endArrow=classic;html=1;rounded=0;entryX=0.5;entryY=0;entryDx=0;entryDy=0;exitX=0.5;exitY=1;exitDx=0;exitDy=0;" parent="hpTO8w79oZe0RCC16EcX-37" source="hpTO8w79oZe0RCC16EcX-41" target="hpTO8w79oZe0RCC16EcX-42" edge="1">
          <mxGeometry width="50" height="50" relative="1" as="geometry">
            <mxPoint x="167.14285714285714" y="41.219549753044575" as="sourcePoint" />
            <mxPoint x="213.57142857142856" y="-10.304887438261144" as="targetPoint" />
          </mxGeometry>
        </mxCell>
        <mxCell id="hpTO8w79oZe0RCC16EcX-44" value="" style="endArrow=classic;html=1;exitX=1;exitY=0;exitDx=0;exitDy=0;entryX=0;entryY=0;entryDx=0;entryDy=0;curved=1;" parent="hpTO8w79oZe0RCC16EcX-37" source="hpTO8w79oZe0RCC16EcX-39" target="hpTO8w79oZe0RCC16EcX-42" edge="1">
          <mxGeometry width="50" height="50" relative="1" as="geometry">
            <mxPoint x="120.7142857142857" y="164.8781990121783" as="sourcePoint" />
            <mxPoint x="167.14285714285714" y="113.35376182087259" as="targetPoint" />
            <Array as="points">
              <mxPoint x="65" y="82.43909950608915" />
            </Array>
          </mxGeometry>
        </mxCell>
        <mxCell id="hpTO8w79oZe0RCC16EcX-45" value="" style="endArrow=classic;html=1;exitX=0;exitY=1;exitDx=0;exitDy=0;curved=1;entryX=1;entryY=1;entryDx=0;entryDy=0;" parent="hpTO8w79oZe0RCC16EcX-37" source="hpTO8w79oZe0RCC16EcX-42" target="hpTO8w79oZe0RCC16EcX-39" edge="1">
          <mxGeometry width="50" height="50" relative="1" as="geometry">
            <mxPoint x="103.73801692082117" y="123.65864925913372" as="sourcePoint" />
            <mxPoint x="37.14285714285714" y="123.65864925913372" as="targetPoint" />
            <Array as="points">
              <mxPoint x="70.44142857142857" y="140" />
            </Array>
          </mxGeometry>
        </mxCell>
        <mxCell id="hpTO8w79oZe0RCC16EcX-46" value="&lt;font face=&quot;Times New Roman&quot; color=&quot;#000000&quot; style=&quot;font-size: 16px;&quot;&gt;&lt;b&gt;L&lt;sub&gt;1&lt;/sub&gt;&lt;/b&gt;&lt;/font&gt;" style="ellipse;whiteSpace=wrap;html=1;aspect=fixed;fillColor=#f5f5f5;fontColor=#333333;strokeColor=#000000;" parent="hpTO8w79oZe0RCC16EcX-49" vertex="1">
          <mxGeometry y="45" width="37.14285714285714" height="37.14285714285714" as="geometry" />
        </mxCell>
        <mxCell id="hpTO8w79oZe0RCC16EcX-47" value="" style="endArrow=classic;html=1;rounded=0;fontFamily=Times New Roman;fontSize=20;exitX=1;exitY=0;exitDx=0;exitDy=0;dashed=1;" parent="hpTO8w79oZe0RCC16EcX-49" edge="1">
          <mxGeometry width="50" height="50" relative="1" as="geometry">
            <mxPoint x="31.70341165059881" y="50.43944549225853" as="sourcePoint" />
            <mxPoint x="55" y="30" as="targetPoint" />
          </mxGeometry>
        </mxCell>
        <mxCell id="hpTO8w79oZe0RCC16EcX-48" value="" style="endArrow=classic;html=1;rounded=0;fontFamily=Times New Roman;fontSize=20;exitX=1;exitY=1;exitDx=0;exitDy=0;dashed=1;" parent="hpTO8w79oZe0RCC16EcX-49" target="hpTO8w79oZe0RCC16EcX-39" edge="1">
          <mxGeometry width="50" height="50" relative="1" as="geometry">
            <mxPoint x="31.70341165059881" y="76.70341165059881" as="sourcePoint" />
            <mxPoint x="65" y="40" as="targetPoint" />
          </mxGeometry>
        </mxCell>
        <mxCell id="hpTO8w79oZe0RCC16EcX-50" value="" style="group" parent="1" vertex="1" connectable="0">
          <mxGeometry x="226.5" y="330" width="157" height="149" as="geometry" />
        </mxCell>
        <mxCell id="hpTO8w79oZe0RCC16EcX-51" value="&lt;font face=&quot;Times New Roman&quot; style=&quot;font-size: 18px;&quot;&gt;&lt;b&gt;X&lt;sub&gt;1&lt;/sub&gt;&lt;/b&gt;&lt;/font&gt;" style="ellipse;whiteSpace=wrap;html=1;aspect=fixed;strokeWidth=1;" parent="hpTO8w79oZe0RCC16EcX-50" vertex="1">
          <mxGeometry width="47.86060606060605" height="47.86060606060605" as="geometry" />
        </mxCell>
        <mxCell id="hpTO8w79oZe0RCC16EcX-52" value="&lt;font face=&quot;Times New Roman&quot; style=&quot;font-size: 18px;&quot;&gt;&lt;b&gt;&lt;font style=&quot;font-size: 18px;&quot;&gt;X&lt;/font&gt;&lt;font style=&quot;font-size: 18px;&quot;&gt;&lt;sub style=&quot;&quot;&gt;2&lt;/sub&gt;&lt;/font&gt;&lt;/b&gt;&lt;/font&gt;" style="ellipse;whiteSpace=wrap;html=1;aspect=fixed;strokeWidth=1;" parent="hpTO8w79oZe0RCC16EcX-50" vertex="1">
          <mxGeometry y="99.33333333333333" width="47.86060606060605" height="47.86060606060605" as="geometry" />
        </mxCell>
        <mxCell id="hpTO8w79oZe0RCC16EcX-53" value="&lt;font face=&quot;Times New Roman&quot; style=&quot;font-size: 18px;&quot;&gt;&lt;b&gt;X&lt;sub&gt;3&lt;/sub&gt;&lt;/b&gt;&lt;/font&gt;" style="ellipse;whiteSpace=wrap;html=1;aspect=fixed;strokeWidth=1;" parent="hpTO8w79oZe0RCC16EcX-50" vertex="1">
          <mxGeometry x="104.66666666666666" y="99.33333333333333" width="47.86060606060605" height="47.86060606060605" as="geometry" />
        </mxCell>
        <mxCell id="hpTO8w79oZe0RCC16EcX-54" value="&lt;font face=&quot;Times New Roman&quot; style=&quot;font-size: 18px;&quot;&gt;&lt;b&gt;X&lt;sub&gt;4&lt;/sub&gt;&lt;/b&gt;&lt;/font&gt;" style="ellipse;whiteSpace=wrap;html=1;aspect=fixed;strokeWidth=1;" parent="hpTO8w79oZe0RCC16EcX-50" vertex="1">
          <mxGeometry x="104.66666666666666" width="47.86060606060605" height="47.86060606060605" as="geometry" />
        </mxCell>
        <mxCell id="hpTO8w79oZe0RCC16EcX-55" value="" style="endArrow=classic;html=1;rounded=0;fontSize=25;exitX=0.5;exitY=1;exitDx=0;exitDy=0;entryX=0.5;entryY=0;entryDx=0;entryDy=0;strokeWidth=1;" parent="hpTO8w79oZe0RCC16EcX-50" source="hpTO8w79oZe0RCC16EcX-51" target="hpTO8w79oZe0RCC16EcX-52" edge="1">
          <mxGeometry width="50" height="50" relative="1" as="geometry">
            <mxPoint x="-223.07083333333333" y="-126.64999999999999" as="sourcePoint" />
            <mxPoint x="-190.3625" y="-157.69166666666663" as="targetPoint" />
          </mxGeometry>
        </mxCell>
        <mxCell id="hpTO8w79oZe0RCC16EcX-56" value="" style="endArrow=classic;html=1;rounded=0;fontSize=25;exitX=0.5;exitY=1;exitDx=0;exitDy=0;entryX=0.5;entryY=0;entryDx=0;entryDy=0;strokeWidth=1;" parent="hpTO8w79oZe0RCC16EcX-50" source="hpTO8w79oZe0RCC16EcX-54" target="hpTO8w79oZe0RCC16EcX-53" edge="1">
          <mxGeometry width="50" height="50" relative="1" as="geometry">
            <mxPoint x="-223.07083333333333" y="-126.64999999999999" as="sourcePoint" />
            <mxPoint x="-190.3625" y="-157.69166666666663" as="targetPoint" />
          </mxGeometry>
        </mxCell>
        <mxCell id="hpTO8w79oZe0RCC16EcX-57" value="" style="endArrow=none;html=1;strokeWidth=1;fontSize=25;curved=1;exitX=1;exitY=0.5;exitDx=0;exitDy=0;entryX=0;entryY=0.5;entryDx=0;entryDy=0;" parent="hpTO8w79oZe0RCC16EcX-50" source="hpTO8w79oZe0RCC16EcX-52" target="hpTO8w79oZe0RCC16EcX-53" edge="1">
          <mxGeometry width="50" height="50" relative="1" as="geometry">
            <mxPoint x="-537.0708333333333" y="-151.48333333333332" as="sourcePoint" />
            <mxPoint x="-504.36249999999995" y="-182.525" as="targetPoint" />
          </mxGeometry>
        </mxCell>
        <mxCell id="hpTO8w79oZe0RCC16EcX-58" value="" style="endArrow=classic;html=1;strokeWidth=1;fontSize=25;curved=1;entryX=0;entryY=0;entryDx=0;entryDy=0;exitX=1;exitY=1;exitDx=0;exitDy=0;" parent="hpTO8w79oZe0RCC16EcX-50" source="hpTO8w79oZe0RCC16EcX-51" target="hpTO8w79oZe0RCC16EcX-53" edge="1">
          <mxGeometry width="50" height="50" relative="1" as="geometry">
            <mxPoint x="-537.0708333333333" y="-151.48333333333332" as="sourcePoint" />
            <mxPoint x="-504.36249999999995" y="-182.525" as="targetPoint" />
          </mxGeometry>
        </mxCell>
        <mxCell id="hpTO8w79oZe0RCC16EcX-59" value="" style="endArrow=classic;html=1;strokeWidth=1;fontSize=25;curved=1;exitX=0;exitY=1;exitDx=0;exitDy=0;entryX=1;entryY=0;entryDx=0;entryDy=0;" parent="hpTO8w79oZe0RCC16EcX-50" source="hpTO8w79oZe0RCC16EcX-54" target="hpTO8w79oZe0RCC16EcX-52" edge="1">
          <mxGeometry width="50" height="50" relative="1" as="geometry">
            <mxPoint x="-537.0708333333333" y="-151.48333333333332" as="sourcePoint" />
            <mxPoint x="-504.36249999999995" y="-182.525" as="targetPoint" />
          </mxGeometry>
        </mxCell>
        <mxCell id="hpTO8w79oZe0RCC16EcX-60" value="" style="endArrow=none;dashed=1;html=1;dashPattern=1 3;strokeWidth=1.5;rounded=0;" parent="hpTO8w79oZe0RCC16EcX-50" edge="1">
          <mxGeometry width="50" height="50" relative="1" as="geometry">
            <mxPoint x="11.305031446540731" y="135.09999999999985" as="sourcePoint" />
            <mxPoint x="37.471698113207395" y="135.09999999999985" as="targetPoint" />
          </mxGeometry>
        </mxCell>
        <mxCell id="hpTO8w79oZe0RCC16EcX-61" value="" style="endArrow=none;dashed=1;html=1;dashPattern=1 3;strokeWidth=1.5;rounded=0;" parent="hpTO8w79oZe0RCC16EcX-50" edge="1">
          <mxGeometry width="50" height="50" relative="1" as="geometry">
            <mxPoint x="115.97169811320755" y="136.09999999999985" as="sourcePoint" />
            <mxPoint x="142.1383647798742" y="136.09999999999985" as="targetPoint" />
          </mxGeometry>
        </mxCell>
        <mxCell id="hpTO8w79oZe0RCC16EcX-62" value="&lt;font face=&quot;Times New Roman&quot; style=&quot;font-size: 18px;&quot;&gt;&lt;b&gt;X&lt;sub&gt;1&lt;/sub&gt;&lt;/b&gt;&lt;/font&gt;" style="ellipse;whiteSpace=wrap;html=1;aspect=fixed;strokeWidth=1;" parent="1" vertex="1">
          <mxGeometry x="423.74" y="330.9" width="47.86060606060605" height="47.86060606060605" as="geometry" />
        </mxCell>
        <mxCell id="hpTO8w79oZe0RCC16EcX-63" value="&lt;font face=&quot;Times New Roman&quot; style=&quot;font-size: 18px;&quot;&gt;&lt;b&gt;&lt;font style=&quot;font-size: 18px;&quot;&gt;X&lt;/font&gt;&lt;font style=&quot;font-size: 18px;&quot;&gt;&lt;sub style=&quot;&quot;&gt;2&lt;/sub&gt;&lt;/font&gt;&lt;/b&gt;&lt;/font&gt;" style="ellipse;whiteSpace=wrap;html=1;aspect=fixed;strokeWidth=1;" parent="1" vertex="1">
          <mxGeometry x="423.74" y="430.2333333333333" width="47.86060606060605" height="47.86060606060605" as="geometry" />
        </mxCell>
        <mxCell id="hpTO8w79oZe0RCC16EcX-64" value="&lt;font face=&quot;Times New Roman&quot; style=&quot;font-size: 18px;&quot;&gt;&lt;b&gt;X&lt;sub&gt;3&lt;/sub&gt;&lt;/b&gt;&lt;/font&gt;" style="ellipse;whiteSpace=wrap;html=1;aspect=fixed;strokeWidth=1;" parent="1" vertex="1">
          <mxGeometry x="528.4066666666666" y="430.2333333333333" width="47.86060606060605" height="47.86060606060605" as="geometry" />
        </mxCell>
        <mxCell id="hpTO8w79oZe0RCC16EcX-65" value="&lt;font face=&quot;Times New Roman&quot; style=&quot;font-size: 18px;&quot;&gt;&lt;b&gt;X&lt;sub&gt;4&lt;/sub&gt;&lt;/b&gt;&lt;/font&gt;" style="ellipse;whiteSpace=wrap;html=1;aspect=fixed;strokeWidth=1;" parent="1" vertex="1">
          <mxGeometry x="528.4066666666666" y="330.9" width="47.86060606060605" height="47.86060606060605" as="geometry" />
        </mxCell>
        <mxCell id="hpTO8w79oZe0RCC16EcX-66" value="" style="endArrow=classic;html=1;rounded=0;fontSize=25;exitX=0.5;exitY=1;exitDx=0;exitDy=0;entryX=0.5;entryY=0;entryDx=0;entryDy=0;strokeWidth=1;startArrow=none;" parent="1" source="hpTO8w79oZe0RCC16EcX-90" target="hpTO8w79oZe0RCC16EcX-63" edge="1">
          <mxGeometry width="50" height="50" relative="1" as="geometry">
            <mxPoint x="-25.830833333333317" y="-145.75" as="sourcePoint" />
            <mxPoint x="6.877499999999998" y="-176.79166666666663" as="targetPoint" />
          </mxGeometry>
        </mxCell>
        <mxCell id="hpTO8w79oZe0RCC16EcX-67" value="" style="endArrow=classic;html=1;rounded=0;fontSize=25;exitX=0.5;exitY=1;exitDx=0;exitDy=0;entryX=0.5;entryY=0;entryDx=0;entryDy=0;strokeWidth=1;startArrow=none;" parent="1" source="hpTO8w79oZe0RCC16EcX-88" target="hpTO8w79oZe0RCC16EcX-64" edge="1">
          <mxGeometry width="50" height="50" relative="1" as="geometry">
            <mxPoint x="-25.830833333333317" y="-145.75" as="sourcePoint" />
            <mxPoint x="6.877499999999998" y="-176.79166666666663" as="targetPoint" />
          </mxGeometry>
        </mxCell>
        <mxCell id="hpTO8w79oZe0RCC16EcX-68" value="" style="endArrow=none;html=1;strokeWidth=1;fontSize=25;curved=1;exitX=1;exitY=0.5;exitDx=0;exitDy=0;entryX=0;entryY=0.5;entryDx=0;entryDy=0;" parent="1" source="hpTO8w79oZe0RCC16EcX-63" target="hpTO8w79oZe0RCC16EcX-64" edge="1">
          <mxGeometry width="50" height="50" relative="1" as="geometry">
            <mxPoint x="-339.8308333333333" y="-170.58333333333331" as="sourcePoint" />
            <mxPoint x="-307.12249999999995" y="-201.625" as="targetPoint" />
          </mxGeometry>
        </mxCell>
        <mxCell id="hpTO8w79oZe0RCC16EcX-69" value="" style="endArrow=classic;html=1;strokeWidth=1;fontSize=25;curved=1;entryX=0;entryY=0;entryDx=0;entryDy=0;exitX=1;exitY=1;exitDx=0;exitDy=0;" parent="1" source="hpTO8w79oZe0RCC16EcX-62" target="hpTO8w79oZe0RCC16EcX-64" edge="1">
          <mxGeometry width="50" height="50" relative="1" as="geometry">
            <mxPoint x="-339.8308333333333" y="-170.58333333333331" as="sourcePoint" />
            <mxPoint x="-307.12249999999995" y="-201.625" as="targetPoint" />
          </mxGeometry>
        </mxCell>
        <mxCell id="hpTO8w79oZe0RCC16EcX-70" value="" style="endArrow=classic;html=1;strokeWidth=1;fontSize=25;curved=1;exitX=0;exitY=1;exitDx=0;exitDy=0;entryX=1;entryY=0;entryDx=0;entryDy=0;" parent="1" source="hpTO8w79oZe0RCC16EcX-65" target="hpTO8w79oZe0RCC16EcX-63" edge="1">
          <mxGeometry width="50" height="50" relative="1" as="geometry">
            <mxPoint x="-339.8308333333333" y="-170.58333333333331" as="sourcePoint" />
            <mxPoint x="-307.12249999999995" y="-201.625" as="targetPoint" />
          </mxGeometry>
        </mxCell>
        <mxCell id="hpTO8w79oZe0RCC16EcX-73" value="&lt;font face=&quot;Times New Roman&quot; style=&quot;font-size: 18px;&quot;&gt;&lt;b&gt;X&lt;sub&gt;1&lt;/sub&gt;&lt;/b&gt;&lt;/font&gt;" style="ellipse;whiteSpace=wrap;html=1;aspect=fixed;strokeWidth=1;" parent="1" vertex="1">
          <mxGeometry x="628.74" y="330.9" width="47.86060606060605" height="47.86060606060605" as="geometry" />
        </mxCell>
        <mxCell id="hpTO8w79oZe0RCC16EcX-74" value="&lt;font face=&quot;Times New Roman&quot; style=&quot;font-size: 18px;&quot;&gt;&lt;b&gt;&lt;font style=&quot;font-size: 18px;&quot;&gt;X&lt;/font&gt;&lt;font style=&quot;font-size: 18px;&quot;&gt;&lt;sub style=&quot;&quot;&gt;2&lt;/sub&gt;&lt;/font&gt;&lt;/b&gt;&lt;/font&gt;" style="ellipse;whiteSpace=wrap;html=1;aspect=fixed;strokeWidth=1;" parent="1" vertex="1">
          <mxGeometry x="628.74" y="430.2333333333333" width="47.86060606060605" height="47.86060606060605" as="geometry" />
        </mxCell>
        <mxCell id="hpTO8w79oZe0RCC16EcX-75" value="&lt;font face=&quot;Times New Roman&quot; style=&quot;font-size: 18px;&quot;&gt;&lt;b&gt;X&lt;sub&gt;3&lt;/sub&gt;&lt;/b&gt;&lt;/font&gt;" style="ellipse;whiteSpace=wrap;html=1;aspect=fixed;strokeWidth=1;" parent="1" vertex="1">
          <mxGeometry x="733.4066666666666" y="430.2333333333333" width="47.86060606060605" height="47.86060606060605" as="geometry" />
        </mxCell>
        <mxCell id="hpTO8w79oZe0RCC16EcX-76" value="&lt;font face=&quot;Times New Roman&quot; style=&quot;font-size: 18px;&quot;&gt;&lt;b&gt;X&lt;sub&gt;4&lt;/sub&gt;&lt;/b&gt;&lt;/font&gt;" style="ellipse;whiteSpace=wrap;html=1;aspect=fixed;strokeWidth=1;" parent="1" vertex="1">
          <mxGeometry x="733.4066666666666" y="330.9" width="47.86060606060605" height="47.86060606060605" as="geometry" />
        </mxCell>
        <mxCell id="hpTO8w79oZe0RCC16EcX-77" value="" style="endArrow=classic;html=1;rounded=0;fontSize=25;exitX=0.5;exitY=1;exitDx=0;exitDy=0;entryX=0.5;entryY=0;entryDx=0;entryDy=0;strokeWidth=1;" parent="1" source="hpTO8w79oZe0RCC16EcX-73" target="hpTO8w79oZe0RCC16EcX-74" edge="1">
          <mxGeometry width="50" height="50" relative="1" as="geometry">
            <mxPoint x="179.16916666666668" y="-145.75" as="sourcePoint" />
            <mxPoint x="211.8775" y="-176.79166666666663" as="targetPoint" />
          </mxGeometry>
        </mxCell>
        <mxCell id="hpTO8w79oZe0RCC16EcX-78" value="" style="endArrow=classic;html=1;rounded=0;fontSize=25;exitX=0.5;exitY=1;exitDx=0;exitDy=0;entryX=0.5;entryY=0;entryDx=0;entryDy=0;strokeWidth=1;startArrow=none;" parent="1" source="hpTO8w79oZe0RCC16EcX-93" target="hpTO8w79oZe0RCC16EcX-75" edge="1">
          <mxGeometry width="50" height="50" relative="1" as="geometry">
            <mxPoint x="179.16916666666668" y="-145.75" as="sourcePoint" />
            <mxPoint x="211.8775" y="-176.79166666666663" as="targetPoint" />
          </mxGeometry>
        </mxCell>
        <mxCell id="hpTO8w79oZe0RCC16EcX-79" value="" style="endArrow=none;html=1;strokeWidth=1;fontSize=25;curved=1;exitX=1;exitY=0.5;exitDx=0;exitDy=0;entryX=0;entryY=0.5;entryDx=0;entryDy=0;" parent="1" source="hpTO8w79oZe0RCC16EcX-74" target="hpTO8w79oZe0RCC16EcX-75" edge="1">
          <mxGeometry width="50" height="50" relative="1" as="geometry">
            <mxPoint x="-134.83083333333332" y="-170.58333333333331" as="sourcePoint" />
            <mxPoint x="-102.12249999999995" y="-201.625" as="targetPoint" />
          </mxGeometry>
        </mxCell>
        <mxCell id="hpTO8w79oZe0RCC16EcX-80" value="" style="endArrow=classic;html=1;strokeWidth=1;fontSize=25;curved=1;entryX=0;entryY=0;entryDx=0;entryDy=0;exitX=1;exitY=1;exitDx=0;exitDy=0;startArrow=none;" parent="1" source="hpTO8w79oZe0RCC16EcX-97" target="hpTO8w79oZe0RCC16EcX-75" edge="1">
          <mxGeometry width="50" height="50" relative="1" as="geometry">
            <mxPoint x="-134.83083333333332" y="-170.58333333333331" as="sourcePoint" />
            <mxPoint x="-102.12249999999995" y="-201.625" as="targetPoint" />
          </mxGeometry>
        </mxCell>
        <mxCell id="hpTO8w79oZe0RCC16EcX-81" value="" style="endArrow=classic;html=1;strokeWidth=1;fontSize=25;curved=1;exitX=0;exitY=1;exitDx=0;exitDy=0;entryX=1;entryY=0;entryDx=0;entryDy=0;startArrow=none;" parent="1" source="hpTO8w79oZe0RCC16EcX-95" target="hpTO8w79oZe0RCC16EcX-74" edge="1">
          <mxGeometry width="50" height="50" relative="1" as="geometry">
            <mxPoint x="-134.83083333333332" y="-170.58333333333331" as="sourcePoint" />
            <mxPoint x="-102.12249999999995" y="-201.625" as="targetPoint" />
          </mxGeometry>
        </mxCell>
        <mxCell id="hpTO8w79oZe0RCC16EcX-84" value="" style="ellipse;whiteSpace=wrap;html=1;aspect=fixed;strokeColor=#000000;strokeWidth=1;fontFamily=Times New Roman;fontSize=18;fontColor=#000000;" parent="1" vertex="1">
          <mxGeometry x="472" y="450" width="8" height="8" as="geometry" />
        </mxCell>
        <mxCell id="hpTO8w79oZe0RCC16EcX-85" value="" style="ellipse;whiteSpace=wrap;html=1;aspect=fixed;strokeColor=#000000;strokeWidth=1;fontFamily=Times New Roman;fontSize=18;fontColor=#000000;" parent="1" vertex="1">
          <mxGeometry x="520" y="450" width="8" height="8" as="geometry" />
        </mxCell>
        <mxCell id="hpTO8w79oZe0RCC16EcX-86" value="" style="ellipse;whiteSpace=wrap;html=1;aspect=fixed;strokeColor=#000000;strokeWidth=1;fontFamily=Times New Roman;fontSize=18;fontColor=#000000;" parent="1" vertex="1">
          <mxGeometry x="465" y="370" width="8" height="8" as="geometry" />
        </mxCell>
        <mxCell id="hpTO8w79oZe0RCC16EcX-87" value="" style="ellipse;whiteSpace=wrap;html=1;aspect=fixed;strokeColor=#000000;strokeWidth=1;fontFamily=Times New Roman;fontSize=18;fontColor=#000000;" parent="1" vertex="1">
          <mxGeometry x="528" y="370" width="8" height="8" as="geometry" />
        </mxCell>
        <mxCell id="hpTO8w79oZe0RCC16EcX-89" value="" style="endArrow=none;html=1;rounded=0;fontSize=25;exitX=0.5;exitY=1;exitDx=0;exitDy=0;entryX=0.5;entryY=0;entryDx=0;entryDy=0;strokeWidth=1;" parent="1" source="hpTO8w79oZe0RCC16EcX-65" target="hpTO8w79oZe0RCC16EcX-88" edge="1">
          <mxGeometry width="50" height="50" relative="1" as="geometry">
            <mxPoint x="552.3369696969698" y="378.76060606060605" as="sourcePoint" />
            <mxPoint x="552.3369696969698" y="430.23333333333335" as="targetPoint" />
          </mxGeometry>
        </mxCell>
        <mxCell id="hpTO8w79oZe0RCC16EcX-88" value="" style="ellipse;whiteSpace=wrap;html=1;aspect=fixed;strokeColor=#000000;strokeWidth=1;fontFamily=Times New Roman;fontSize=18;fontColor=#000000;" parent="1" vertex="1">
          <mxGeometry x="548.34" y="379.89" width="8" height="8" as="geometry" />
        </mxCell>
        <mxCell id="hpTO8w79oZe0RCC16EcX-91" value="" style="endArrow=none;html=1;rounded=0;fontSize=25;exitX=0.5;exitY=1;exitDx=0;exitDy=0;entryX=0.5;entryY=0;entryDx=0;entryDy=0;strokeWidth=1;" parent="1" source="hpTO8w79oZe0RCC16EcX-62" target="hpTO8w79oZe0RCC16EcX-90" edge="1">
          <mxGeometry width="50" height="50" relative="1" as="geometry">
            <mxPoint x="447.6703030303024" y="378.76060606060605" as="sourcePoint" />
            <mxPoint x="447.6703030303024" y="430.23333333333335" as="targetPoint" />
          </mxGeometry>
        </mxCell>
        <mxCell id="hpTO8w79oZe0RCC16EcX-90" value="" style="ellipse;whiteSpace=wrap;html=1;aspect=fixed;strokeColor=#000000;strokeWidth=1;fontFamily=Times New Roman;fontSize=18;fontColor=#000000;" parent="1" vertex="1">
          <mxGeometry x="443.67" y="378.76" width="8" height="8" as="geometry" />
        </mxCell>
        <mxCell id="hpTO8w79oZe0RCC16EcX-92" value="" style="ellipse;whiteSpace=wrap;html=1;aspect=fixed;strokeColor=#000000;strokeWidth=1;fontFamily=Times New Roman;fontSize=18;fontColor=#000000;" parent="1" vertex="1">
          <mxGeometry x="648.67" y="379.89" width="8" height="8" as="geometry" />
        </mxCell>
        <mxCell id="hpTO8w79oZe0RCC16EcX-94" value="" style="endArrow=none;html=1;rounded=0;fontSize=25;exitX=0.5;exitY=1;exitDx=0;exitDy=0;entryX=0.5;entryY=0;entryDx=0;entryDy=0;strokeWidth=1;" parent="1" source="hpTO8w79oZe0RCC16EcX-76" target="hpTO8w79oZe0RCC16EcX-93" edge="1">
          <mxGeometry width="50" height="50" relative="1" as="geometry">
            <mxPoint x="757.3369696969698" y="378.76060606060605" as="sourcePoint" />
            <mxPoint x="757.3369696969698" y="430.23333333333335" as="targetPoint" />
          </mxGeometry>
        </mxCell>
        <mxCell id="hpTO8w79oZe0RCC16EcX-93" value="" style="ellipse;whiteSpace=wrap;html=1;aspect=fixed;strokeColor=#000000;strokeWidth=1;fontFamily=Times New Roman;fontSize=18;fontColor=#000000;" parent="1" vertex="1">
          <mxGeometry x="753.34" y="379.89" width="8" height="8" as="geometry" />
        </mxCell>
        <mxCell id="hpTO8w79oZe0RCC16EcX-96" value="" style="endArrow=none;html=1;strokeWidth=1;fontSize=25;curved=1;exitX=0;exitY=1;exitDx=0;exitDy=0;entryX=1;entryY=0;entryDx=0;entryDy=0;" parent="1" source="hpTO8w79oZe0RCC16EcX-76" target="hpTO8w79oZe0RCC16EcX-95" edge="1">
          <mxGeometry width="50" height="50" relative="1" as="geometry">
            <mxPoint x="740.4156901484275" y="371.75158257884505" as="sourcePoint" />
            <mxPoint x="669.5915825788779" y="437.24235681506093" as="targetPoint" />
          </mxGeometry>
        </mxCell>
        <mxCell id="hpTO8w79oZe0RCC16EcX-95" value="" style="ellipse;whiteSpace=wrap;html=1;aspect=fixed;strokeColor=#000000;strokeWidth=1;fontFamily=Times New Roman;fontSize=18;fontColor=#000000;" parent="1" vertex="1">
          <mxGeometry x="733.41" y="370.76" width="8" height="8" as="geometry" />
        </mxCell>
        <mxCell id="hpTO8w79oZe0RCC16EcX-98" value="" style="endArrow=none;html=1;strokeWidth=1;fontSize=25;curved=1;entryX=0;entryY=0;entryDx=0;entryDy=0;exitX=1;exitY=1;exitDx=0;exitDy=0;" parent="1" source="hpTO8w79oZe0RCC16EcX-73" target="hpTO8w79oZe0RCC16EcX-97" edge="1">
          <mxGeometry width="50" height="50" relative="1" as="geometry">
            <mxPoint x="669.5915825788779" y="371.75158257887824" as="sourcePoint" />
            <mxPoint x="740.4156901484275" y="437.2423568150941" as="targetPoint" />
          </mxGeometry>
        </mxCell>
        <mxCell id="hpTO8w79oZe0RCC16EcX-97" value="" style="ellipse;whiteSpace=wrap;html=1;aspect=fixed;strokeColor=#000000;strokeWidth=1;fontFamily=Times New Roman;fontSize=18;fontColor=#000000;" parent="1" vertex="1">
          <mxGeometry x="668.6" y="370.76" width="8" height="8" as="geometry" />
        </mxCell>
        <mxCell id="hpTO8w79oZe0RCC16EcX-4" value="" style="endArrow=none;html=1;rounded=0;exitX=1;exitY=0;exitDx=0;exitDy=0;strokeColor=#666666;" parent="1" source="hpTO8w79oZe0RCC16EcX-18" edge="1">
          <mxGeometry width="50" height="50" relative="1" as="geometry">
            <mxPoint x="0.005000000000109139" y="409.0050000000001" as="sourcePoint" />
            <mxPoint x="200" y="410" as="targetPoint" />
          </mxGeometry>
        </mxCell>
        <mxCell id="hpTO8w79oZe0RCC16EcX-9" value="" style="endArrow=none;html=1;rounded=0;strokeColor=#666666;" parent="1" edge="1">
          <mxGeometry width="50" height="50" relative="1" as="geometry">
            <mxPoint x="-40" y="583" as="sourcePoint" />
            <mxPoint x="800" y="582" as="targetPoint" />
          </mxGeometry>
        </mxCell>
      </root>
    </mxGraphModel>
  </diagram>
</mxfile>
